#N canvas 449 22 879 684 10;
#X msg 30 57 range 0 1;
#X msg 40 79 range -10 10;
#X msg 256 78 min -1 -2 -3 -4;
#X msg 267 98 min -10;
#X msg 486 77 max 1 2 3 4;
#X msg 496 97 max 10;
#X msg 51 99 range;
#X msg 285 248 default blah fruh;
#X msg 275 228 default 0 1 1 1;
#X msg 547 545 hidden \$1;
#X obj 547 524 tgl 15 0 empty empty empty 17 7 0 10 -262144 -1 -1 0
1;
#X msg 697 247 priority \$1;
#X floatatom 697 225 5 0 0 0 - - -, f 5;
#X obj 484 364 tgl 15 0 empty empty empty 17 7 0 10 -262144 -1 -1 0
1;
#X msg 705 382 tags graphic core;
#X obj 39 379 tgl 15 0 empty empty empty 17 7 0 10 -262144 -1 -1 0
1;
#X msg 39 400 enable \$1;
#X msg 38 529 description Something meaningful;
#X obj 487 225 tgl 15 0 empty empty empty 17 7 0 10 -262144 -1 -1 0
1;
#X msg 487 246 mute \$1;
#X msg 358 528 mode bi;
#X msg 368 550 mode get;
#X msg 48 549 description nothing;
#X msg 687 45 clip both;
#X msg 697 66 clip low;
#X msg 712 87 clip free;
#X msg 252 394 rate \$1;
#X floatatom 252 371 5 0 0 0 - - -, f 5;
#X obj 30 148 ossia.param attrs @range 0 1, f 16;
#X obj 256 147 ossia.param attrs @min -1 -2 -3 -4, f 20;
#X obj 485 144 ossia.param attrs @max 1 2 3 4, f 18;
#X obj 687 144 ossia.param attrs @clip both, f 18;
#X obj 546 598 ossia.param attrs @hidden 1, f 18;
#X obj 487 295 ossia.param attrs @mute 0, f 18;
#X obj 697 296 ossia.param attrs @priority 12, f 18;
#X obj 39 449 ossia.param attrs @enable 1, f 18;
#X obj 252 444 ossia.param attrs @rate 10, f 18;
#X text 296 369 in ms;
#X text 739 223 higher first;
#X msg 484 383 repetitions \$1;
#X obj 484 432 ossia.param attrs @repetitions 1, f 18;
#X obj 275 297 ossia.param attrs @default 0.2, f 18;
#X obj 705 429 ossia.param attrs @tags some stuff, f 18;
#X obj 358 597 ossia.param attrs @mode bi, f 18;
#X obj 38 598 ossia.param attrs @description some info, f 25;
#X msg 54 250 range;
#X msg 33 208 range un deux trois;
#X msg 43 230 range one two three;
#X obj 33 299 ossia.param attrString @type string @range uno dos tres
@clip both, f 24;
#X obj 709 610 s \$0-param_bar;
#X msg 709 560 recall_safe \$1;
#X msg 733 585 get recall_safe;
#X obj 708 536 tgl 15 0 empty empty empty 17 7 0 10 -262144 -1 -1 0
1;
#X msg 572 569 get hidden;
#X msg 382 572 get mode;
#X msg 63 573 get description;
#X msg 64 424 get enable;
#X msg 276 420 get rate;
#X msg 499 407 get repetitions;
#X msg 730 404 get tags;
#X msg 722 271 get priority;
#X msg 512 270 get mute;
#X msg 300 272 get default;
#X msg 58 274 get range;
#X msg 55 123 get range;
#X msg 281 121 get min;
#X msg 511 121 get max;
#X msg 724 108 get clip;
#X connect 0 0 28 0;
#X connect 1 0 28 0;
#X connect 2 0 29 0;
#X connect 3 0 29 0;
#X connect 4 0 30 0;
#X connect 5 0 30 0;
#X connect 6 0 28 0;
#X connect 7 0 41 0;
#X connect 8 0 41 0;
#X connect 9 0 32 0;
#X connect 10 0 9 0;
#X connect 11 0 34 0;
#X connect 12 0 11 0;
#X connect 13 0 39 0;
#X connect 14 0 42 0;
#X connect 15 0 16 0;
#X connect 16 0 35 0;
#X connect 17 0 44 0;
#X connect 18 0 19 0;
#X connect 19 0 33 0;
#X connect 20 0 43 0;
#X connect 21 0 43 0;
#X connect 22 0 44 0;
#X connect 23 0 31 0;
#X connect 24 0 31 0;
#X connect 25 0 31 0;
#X connect 26 0 36 0;
#X connect 27 0 26 0;
#X connect 39 0 40 0;
#X connect 45 0 48 0;
#X connect 46 0 48 0;
#X connect 47 0 48 0;
#X connect 50 0 49 0;
#X connect 51 0 49 0;
#X connect 52 0 50 0;
#X connect 53 0 32 0;
#X connect 54 0 43 0;
#X connect 55 0 44 0;
#X connect 56 0 35 0;
#X connect 57 0 36 0;
#X connect 58 0 40 0;
#X connect 59 0 42 0;
#X connect 60 0 34 0;
#X connect 61 0 33 0;
#X connect 62 0 41 0;
#X connect 63 0 48 0;
#X connect 64 0 28 0;
#X connect 65 0 29 0;
#X connect 66 0 30 0;
#X connect 67 0 31 0;
