#N canvas 73 347 460 554 10;
#X obj 75 55 ossia.param aParam @unit gain.db;
#X obj 73 216 ossia.param myGain @unit db;
#X obj 74 119 ossia.param aParam @type float @unit db;
#X obj 77 301 ossia.param myGain @type db;
#X msg 145 272 getunit;
#X msg 77 271 gettype;
#X obj 274 301 print;
#X msg 73 194 gettype;
#N canvas 0 120 239 256 (subpatch) 0;
#X obj 45 37 inlet;
#X obj 46 140 outlet, f 7;
#X obj 45 64 list prepend set;
#X obj 47 99 list trim list;
#X connect 0 0 2 0;
#X connect 2 0 3 0;
#X connect 3 0 1 0;
#X restore 270 217 pd;
#X msg 300 218 clip both;
#X obj 69 436 ossia.param aGain @unit db;
#X floatatom 69 464 5 0 0 0 - - -, f 5;
#X floatatom 69 385 5 0 0 0 - - -, f 5;
#X obj 69 405 ossia.remote aGain @unit linear;
#X connect 1 1 8 0;
#X connect 3 1 6 0;
#X connect 4 0 3 0;
#X connect 5 0 3 0;
#X connect 7 0 1 0;
#X connect 8 0 9 0;
#X connect 10 0 11 0;
#X connect 12 0 13 0;
